# xmcd
# 
# Track frame offsets:
#     150
#     26680
#     46385
#     67292
#     98265
#     123072
#     147255
#     172835
# 
# Disc length: 2614
# 
# Revision: 5
# Processed by: cddbd v1.5.2PL0 Copyright (c) Steve Scherf et al.
# Submitted via: fre:ac v1.0.17
# 
DISCID=620a3408
DTITLE=Robben Ford - The Inside Story
DYEAR=1979
DGENRE=Fusion
TTITLE0=Magic Sam
TTITLE1=For the One I Love
TTITLE2=North Carolina
TTITLE3=There's No One Else
TTITLE4=The Inside Story
TTITLE5=Need Somebody
TTITLE6=Far Away
TTITLE7=Tee Time for Eric
EXTD=1979 - Electra Entertainment
EXTT0=
EXTT1=
EXTT2=
EXTT3=
EXTT4=
EXTT5=
EXTT6=
EXTT7=
PLAYORDER=
